<?xml version="1.0"?>
<svg id="_레이어_2" data-name="레이어 2" xmlns="http://www.w3.org/2000/svg" viewBox="0 0 132.38 177.63">
  <defs>
    
  </defs>
  <g id="Layer_4" data-name="Layer 4">
    <g>
      <g>
        <polygon class="cls-2" points="132.38 23.03 1.75 0 1.75 109.44 113.64 129.17 132.38 23.03"></polygon>
        <polygon class="cls-1" points="87.79 45.85 67.59 79.27 60.69 41.08 53.19 39.76 33.02 73 26.21 35 17.21 33.41 27.08 85.56 34.36 86.84 54.46 54.17 61.55 91.64 68.97 92.95 89.96 58.9 93.41 77 86.96 75.87 82.12 83.73 95.01 86 97.4 97.96 105.88 99.45 96.65 47.42 87.79 45.85"></polygon>
        <polygon class="cls-2" points="21.44 139.36 16.76 156.81 13.92 156.81 10.71 146.22 7.5 156.81 4.66 156.81 0 139.36 3.55 139.36 6.25 150.36 9.44 139.36 11.98 139.36 15.17 150.36 17.89 139.36 21.44 139.36"></polygon>
        <polygon class="cls-2" points="34.61 156.81 23.12 156.81 23.12 139.36 34.61 139.36 34.61 142.4 26.52 142.4 26.52 146.49 33.41 146.49 33.41 149.53 26.52 149.53 26.52 153.77 34.61 153.77 34.61 156.81"></polygon>
        <path class="cls-2" d="M49.63,151.78c0,1.59-.49,2.82-1.47,3.71-.98.88-2.28,1.32-3.87,1.32h-7.31v-17.45h7.01c1.68,0,3,.44,3.96,1.31.96.88,1.44,2.08,1.44,3.59,0,.88-.25,1.68-.74,2.38-.39.56-.87.97-1.42,1.22.67.32,1.2.73,1.59,1.25.54.72.8,1.62.8,2.67M45.98,144.41c0-.61-.21-1.09-.61-1.46-.39-.37-.95-.55-1.65-.55h-3.33v4.02h3.33c.71,0,1.28-.19,1.67-.54.39-.35.59-.85.59-1.47M46.23,151.61c0-.62-.18-1.12-.54-1.49-.41-.42-.99-.63-1.74-.63h-3.55v4.29h3.55c.73,0,1.3-.2,1.68-.61.39-.4.59-.92.59-1.54"></path>
        <path class="cls-2" d="M67.89,156.81h-3.56l-1.03-3.09h-6.2l-1.05,3.09h-3.55l6.35-17.45h2.66l6.38,17.45ZM62.39,150.86l-2.13-6.35-2.21,6.35h4.33Z"></path>
        <polygon class="cls-2" points="87.7 139.36 83.02 156.81 80.17 156.81 76.96 146.22 73.75 156.81 70.91 156.81 66.25 139.36 69.81 139.36 72.5 150.36 75.68 139.36 78.24 139.36 81.42 150.36 84.14 139.36 87.7 139.36"></polygon>
        <path class="cls-2" d="M101.08,156.81h-3.55l-1.03-3.09h-6.2l-1.06,3.09h-3.55l6.35-17.45h2.67l6.37,17.45ZM95.6,150.86l-2.13-6.35-2.21,6.35h4.34Z"></path>
        <path class="cls-2" d="M115.13,156.81h-3.94l-3.41-6.97h-2.46v6.97h-3.4v-17.45h6.83c1.73,0,3.12.52,4.17,1.57,1,.99,1.5,2.25,1.5,3.77,0,1.14-.32,2.13-.95,2.96-.58.75-1.32,1.29-2.23,1.61l3.9,7.54ZM111.01,144.69c0-.7-.23-1.25-.68-1.67-.45-.41-1.05-.62-1.8-.62h-3.22v4.58h3.22c.73,0,1.33-.21,1.79-.64.46-.42.69-.97.69-1.66"></path>
        <path class="cls-2" d="M129.12,148.01v1.13c0,1.4-.08,2.46-.24,3.19-.25,1.11-.75,2.05-1.52,2.81-.54.54-1.21.96-2.02,1.24-.81.29-1.67.43-2.58.43h-6.29v-17.45h6.29c.93,0,1.79.13,2.57.4.78.27,1.46.7,2.03,1.27.77.77,1.28,1.69,1.52,2.74.16.71.24,1.75.24,3.14v1.1ZM125.71,148.01c0-1.41-.04-2.41-.13-3.03-.09-.61-.29-1.11-.59-1.48-.3-.38-.66-.65-1.07-.83-.41-.18-.91-.27-1.5-.27h-2.57v11.37h2.57c1.12,0,1.97-.36,2.55-1.08.32-.38.52-.89.61-1.53.09-.64.13-1.69.13-3.15"></path>
      </g>
      <g>
        <path class="cls-3" d="M38.23,177.63h-1.52l-2.93-11.4h-.06l-2.97,11.4h-1.54l-3.67-13.94h1.61l2.82,11.4h.08l2.95-11.4h1.57l2.89,11.42h.06l2.87-11.42h1.54l-3.71,13.94Z"></path>
        <path class="cls-3" d="M42.6,177.53v-1.4h3.01v-11.05h-3.01v-1.4h7.59v1.4h-3.01v11.05h3.01v1.4h-7.59Z"></path>
        <path class="cls-3" d="M60.35,177.57l-6.97-11.22h-.04v11.19h-1.47v-13.85h1.59l6.86,10.95h.06v-10.95h1.45v13.88h-1.47Z"></path>
        <path class="cls-3" d="M72.23,177.57l-6.97-11.22h-.04v11.19h-1.48v-13.85h1.59l6.86,10.95h.06v-10.95h1.46v13.88h-1.48Z"></path>
        <path class="cls-3" d="M75.63,177.53v-13.85h8.43v1.4h-6.86v4.58h5.54v1.38h-5.54v5.09h6.88v1.4h-8.45Z"></path>
        <path class="cls-3" d="M93.61,177.53l-3.73-5.5h-2.6v5.5h-1.59v-13.85h4.76c1.24,0,2.27.29,3.07.89.93.72,1.48,1.82,1.48,3.2,0,2.16-1.22,3.69-3.44,4.12l3.9,5.63h-1.84ZM93.38,167.78c0-1.84-1.42-2.74-3.38-2.74h-2.74v5.63h2.78c2.18,0,3.32-.95,3.32-2.89h.02Z"></path>
      </g>
      <g>
        <path class="cls-2" d="M1.38,177.3v-1.63l4.62-5.44c.82-.95,1.26-1.88,1.26-2.99v-.35c0-.95-.6-1.69-1.92-1.69-1.24,0-1.94.72-1.94,1.83v.37H1.05v-.5c0-2.43,1.88-3.65,4.49-3.65,2.8,0,4.23,1.67,4.23,3.9,0,2.58-1.77,4.23-3.38,6.04l-1.79,2v.04h5.36v2.08H1.38Z"></path>
        <path class="cls-2" d="M18.17,173.81v3.5h-2.41v-3.5h-5.89v-1.9l5.23-8.45h3.07v8.37h1.65v1.98h-1.65ZM15.77,165.81h-.1l-3.71,6.02h3.81v-6.02Z"></path>
      </g>
    </g>
  </g>
</svg>