<?xml version="1.0"?>
<svg id="_레이어_2" data-name="레이어 2" xmlns="http://www.w3.org/2000/svg" viewBox="0 0 132.43 182.16">
  <defs>
    
  </defs>
  <g id="Layer_4" data-name="Layer 4">
    <g>
      <g>
        <polygon class="cls-2" points="132.43 23.03 1.79 0 1.79 109.44 113.69 129.17 132.43 23.03"></polygon>
        <polygon class="cls-3" points="87.84 45.85 67.63 79.27 60.73 41.08 53.23 39.76 33.06 73 26.26 35 17.25 33.41 27.12 85.56 34.41 86.84 54.5 54.17 61.59 91.64 69.01 92.95 90 58.9 93.45 77 87.01 75.87 82.16 83.73 95.05 86 97.44 97.96 105.92 99.45 96.69 47.42 87.84 45.85"></polygon>
        <polygon class="cls-2" points="21.48 139.36 16.81 156.81 13.96 156.81 10.76 146.22 7.54 156.81 4.7 156.81 .04 139.36 3.6 139.36 6.29 150.36 9.48 139.36 12.03 139.36 15.21 150.36 17.93 139.36 21.48 139.36"></polygon>
        <polygon class="cls-2" points="34.65 156.81 23.16 156.81 23.16 139.36 34.65 139.36 34.65 142.4 26.56 142.4 26.56 146.49 33.45 146.49 33.45 149.53 26.56 149.53 26.56 153.77 34.65 153.77 34.65 156.81"></polygon>
        <path class="cls-2" d="M49.67,151.78c0,1.59-.49,2.82-1.47,3.71-.98.88-2.28,1.32-3.87,1.32h-7.31v-17.45h7.01c1.68,0,3,.44,3.96,1.31.96.88,1.44,2.08,1.44,3.59,0,.88-.25,1.68-.74,2.38-.39.56-.87.97-1.42,1.22.67.32,1.2.73,1.59,1.25.54.72.8,1.62.8,2.67M46.03,144.41c0-.61-.21-1.09-.61-1.46-.39-.37-.95-.55-1.65-.55h-3.33v4.02h3.33c.71,0,1.28-.19,1.67-.54.39-.35.59-.85.59-1.47M46.27,151.61c0-.62-.18-1.12-.54-1.49-.41-.42-.99-.63-1.74-.63h-3.55v4.29h3.55c.73,0,1.3-.2,1.68-.61.39-.4.59-.92.59-1.54"></path>
        <path class="cls-2" d="M67.93,156.81h-3.56l-1.03-3.09h-6.2l-1.05,3.09h-3.55l6.35-17.45h2.66l6.38,17.45ZM62.44,150.86l-2.13-6.35-2.21,6.35h4.33Z"></path>
        <polygon class="cls-2" points="87.74 139.36 83.06 156.81 80.22 156.81 77 146.22 73.79 156.81 70.95 156.81 66.29 139.36 69.85 139.36 72.54 150.36 75.73 139.36 78.28 139.36 81.46 150.36 84.19 139.36 87.74 139.36"></polygon>
        <path class="cls-2" d="M101.13,156.81h-3.55l-1.03-3.09h-6.2l-1.06,3.09h-3.55l6.35-17.45h2.67l6.37,17.45ZM95.64,150.86l-2.13-6.35-2.21,6.35h4.34Z"></path>
        <path class="cls-2" d="M115.17,156.81h-3.94l-3.41-6.97h-2.46v6.97h-3.4v-17.45h6.83c1.73,0,3.12.52,4.17,1.57,1,.99,1.5,2.25,1.5,3.77,0,1.14-.32,2.13-.95,2.96-.58.75-1.32,1.29-2.23,1.61l3.9,7.54ZM111.05,144.69c0-.7-.23-1.25-.68-1.67-.45-.41-1.05-.62-1.8-.62h-3.22v4.58h3.22c.73,0,1.33-.21,1.79-.64.46-.42.69-.97.69-1.66"></path>
        <path class="cls-2" d="M129.16,148.01v1.13c0,1.4-.08,2.46-.24,3.19-.25,1.11-.75,2.05-1.52,2.81-.54.54-1.21.96-2.02,1.24-.81.29-1.67.43-2.58.43h-6.29v-17.45h6.29c.93,0,1.79.13,2.57.4.78.27,1.46.7,2.03,1.27.77.77,1.28,1.69,1.52,2.74.16.71.24,1.75.24,3.14v1.1ZM125.75,148.01c0-1.41-.04-2.41-.13-3.03-.09-.61-.29-1.11-.59-1.48-.3-.38-.66-.65-1.07-.83-.41-.18-.91-.27-1.5-.27h-2.57v11.37h2.57c1.12,0,1.97-.36,2.55-1.08.32-.38.52-.89.61-1.53.09-.64.13-1.69.13-3.15"></path>
      </g>
      <g>
        <path class="cls-4" d="M38.27,177.63h-1.52l-2.93-11.4h-.06l-2.97,11.4h-1.54l-3.67-13.94h1.61l2.82,11.4h.08l2.95-11.4h1.57l2.89,11.42h.06l2.87-11.42h1.54l-3.71,13.94Z"></path>
        <path class="cls-4" d="M42.64,177.53v-1.4h3.01v-11.05h-3.01v-1.4h7.59v1.4h-3.01v11.05h3.01v1.4h-7.59Z"></path>
        <path class="cls-4" d="M60.39,177.57l-6.97-11.22h-.04v11.19h-1.47v-13.85h1.59l6.86,10.95h.06v-10.95h1.45v13.88h-1.47Z"></path>
        <path class="cls-4" d="M72.27,177.57l-6.97-11.22h-.04v11.19h-1.48v-13.85h1.59l6.86,10.95h.06v-10.95h1.46v13.88h-1.48Z"></path>
        <path class="cls-4" d="M75.67,177.53v-13.85h8.43v1.4h-6.86v4.58h5.54v1.38h-5.54v5.09h6.88v1.4h-8.45Z"></path>
        <path class="cls-4" d="M93.65,177.53l-3.73-5.5h-2.6v5.5h-1.59v-13.85h4.76c1.24,0,2.27.29,3.07.89.93.72,1.48,1.82,1.48,3.2,0,2.16-1.22,3.69-3.44,4.12l3.9,5.63h-1.84ZM93.42,167.78c0-1.84-1.42-2.74-3.38-2.74h-2.74v5.63h2.78c2.18,0,3.32-.95,3.32-2.89h.02Z"></path>
      </g>
      <text class="cls-1" transform="translate(0 177.3)"><tspan x="0" y="0">23</tspan></text>
    </g>
  </g>
</svg>